<svg id="visual" viewBox="0 0 1500 540" width="1500" height="540" xmlns="http://www.w3.org/2000/svg" xmlns:xlink="http://www.w3.org/1999/xlink" version="1.1"><path d="M0 409L41.7 406.8C83.3 404.7 166.7 400.3 250 402C333.3 403.7 416.7 411.3 500 418.8C583.3 426.3 666.7 433.7 750 439.5C833.3 445.3 916.7 449.7 1000 440C1083.3 430.3 1166.7 406.7 1250 397.7C1333.3 388.7 1416.7 394.3 1458.3 397.2L1500 400L1500 541L1458.3 541C1416.7 541 1333.3 541 1250 541C1166.7 541 1083.3 541 1000 541C916.7 541 833.3 541 750 541C666.7 541 583.3 541 500 541C416.7 541 333.3 541 250 541C166.7 541 83.3 541 41.7 541L0 541Z" fill="#ef5959" stroke-linecap="round" stroke-linejoin="miter"></path></svg>